<svg width="302" height="23" viewBox="0 0 302 23" fill="none" xmlns="http://www.w3.org/2000/svg">
<path d="M10.6898 11.424L7.35375 16.392H5.26575L7.85775 12.312H0.20175V10.56H7.85775L5.26575 6.504H7.35375L10.6898 11.424ZM34.2377 15.912V18H22.0457V1.2H33.9017V3.288H24.4457V8.448H32.8697V10.488H24.4457V15.912H34.2377ZM55.7426 5.28V18H37.6226V5.28H39.9266V15.984H45.5426V5.28H47.8466V15.984H53.4386V5.28H55.7426ZM57.6386 15.984V20.712H55.4786V18H53.3426V15.984H57.6386ZM71.7124 11.712C71.7124 11.888 71.6964 12.12 71.6644 12.408H61.3444C61.4884 13.528 61.9764 14.432 62.8084 15.12C63.6564 15.792 64.7044 16.128 65.9524 16.128C67.4724 16.128 68.6964 15.616 69.6244 14.592L70.8964 16.08C70.3204 16.752 69.6004 17.264 68.7364 17.616C67.8884 17.968 66.9364 18.144 65.8804 18.144C64.5364 18.144 63.3444 17.872 62.3044 17.328C61.2644 16.768 60.4564 15.992 59.8804 15C59.3204 14.008 59.0404 12.888 59.0404 11.64C59.0404 10.408 59.3124 9.296 59.8564 8.304C60.4164 7.312 61.1764 6.544 62.1364 6C63.1124 5.44 64.2084 5.16 65.4244 5.16C66.6404 5.16 67.7204 5.44 68.6644 6C69.6244 6.544 70.3684 7.312 70.8964 8.304C71.4404 9.296 71.7124 10.432 71.7124 11.712ZM65.4244 7.104C64.3204 7.104 63.3924 7.44 62.6404 8.112C61.9044 8.784 61.4724 9.664 61.3444 10.752H69.5044C69.3764 9.68 68.9364 8.808 68.1844 8.136C67.4484 7.448 66.5284 7.104 65.4244 7.104ZM63.1684 3.024C62.8324 3.024 62.5444 2.912 62.3044 2.688C62.0644 2.448 61.9444 2.152 61.9444 1.8C61.9444 1.448 62.0644 1.152 62.3044 0.912C62.5444 0.671999 62.8324 0.551999 63.1684 0.551999C63.5044 0.551999 63.7924 0.671999 64.0324 0.912C64.2724 1.152 64.3924 1.448 64.3924 1.8C64.3924 2.152 64.2724 2.448 64.0324 2.688C63.7924 2.912 63.5044 3.024 63.1684 3.024ZM67.6324 3.024C67.2964 3.024 67.0084 2.912 66.7684 2.688C66.5284 2.448 66.4084 2.152 66.4084 1.8C66.4084 1.448 66.5284 1.152 66.7684 0.912C67.0084 0.671999 67.2964 0.551999 67.6324 0.551999C67.9684 0.551999 68.2564 0.671999 68.4964 0.912C68.7364 1.152 68.8564 1.448 68.8564 1.8C68.8564 2.152 68.7364 2.448 68.4964 2.688C68.2564 2.912 67.9684 3.024 67.6324 3.024ZM85.86 1.2V18H83.484V3.288H79.692V1.2H85.86ZM104.151 13.872H100.959V18H98.6308V13.872H89.2948V12.192L97.8868 1.2H100.479L92.2468 11.808H98.7028V8.16H100.959V11.808H104.151V13.872ZM124.899 5.28V18H122.595V7.296H115.419V18H113.115V5.28H124.899ZM136.101 5.16C137.333 5.16 138.437 5.432 139.413 5.976C140.389 6.52 141.149 7.28 141.693 8.256C142.253 9.232 142.533 10.36 142.533 11.64C142.533 12.92 142.253 14.056 141.693 15.048C141.149 16.024 140.389 16.784 139.413 17.328C138.437 17.872 137.333 18.144 136.101 18.144C135.189 18.144 134.349 17.968 133.581 17.616C132.829 17.264 132.189 16.752 131.661 16.08V22.656H129.357V5.28H131.565V7.296C132.077 6.592 132.725 6.064 133.509 5.712C134.293 5.344 135.157 5.16 136.101 5.16ZM135.909 16.128C136.725 16.128 137.453 15.944 138.093 15.576C138.749 15.192 139.261 14.664 139.629 13.992C140.013 13.304 140.205 12.52 140.205 11.64C140.205 10.76 140.013 9.984 139.629 9.312C139.261 8.624 138.749 8.096 138.093 7.728C137.453 7.36 136.725 7.176 135.909 7.176C135.109 7.176 134.381 7.368 133.725 7.752C133.085 8.12 132.573 8.64 132.189 9.312C131.821 9.984 131.637 10.76 131.637 11.64C131.637 12.52 131.821 13.304 132.189 13.992C132.557 14.664 133.069 15.192 133.725 15.576C134.381 15.944 135.109 16.128 135.909 16.128ZM145.88 5.28H148.184V14.544L155.984 5.28H158.072V18H155.768V8.736L147.992 18H145.88V5.28ZM169.222 11.376C170.07 11.6 170.726 11.96 171.19 12.456C171.654 12.952 171.886 13.568 171.886 14.304C171.886 15.056 171.63 15.728 171.118 16.32C170.606 16.896 169.894 17.352 168.982 17.688C168.086 18.008 167.078 18.168 165.958 18.168C165.014 18.168 164.086 18.048 163.174 17.808C162.278 17.552 161.478 17.192 160.774 16.728L161.47 14.976C162.078 15.36 162.774 15.664 163.558 15.888C164.342 16.096 165.134 16.2 165.934 16.2C167.022 16.2 167.886 16.016 168.526 15.648C169.182 15.264 169.51 14.752 169.51 14.112C169.51 13.52 169.246 13.064 168.718 12.744C168.206 12.424 167.478 12.264 166.534 12.264H164.206V10.608H166.366C167.23 10.608 167.91 10.456 168.406 10.152C168.902 9.848 169.15 9.432 169.15 8.904C169.15 8.328 168.854 7.88 168.262 7.56C167.686 7.24 166.902 7.08 165.91 7.08C164.646 7.08 163.31 7.408 161.902 8.064L161.278 6.288C162.83 5.504 164.454 5.112 166.15 5.112C167.174 5.112 168.094 5.256 168.91 5.544C169.726 5.832 170.366 6.24 170.83 6.768C171.294 7.296 171.526 7.896 171.526 8.568C171.526 9.192 171.318 9.752 170.902 10.248C170.486 10.744 169.926 11.12 169.222 11.376ZM180.836 18.144C179.572 18.144 178.436 17.864 177.428 17.304C176.42 16.744 175.628 15.976 175.052 15C174.492 14.008 174.212 12.888 174.212 11.64C174.212 10.392 174.492 9.28 175.052 8.304C175.628 7.312 176.42 6.544 177.428 6C178.436 5.44 179.572 5.16 180.836 5.16C182.1 5.16 183.228 5.44 184.22 6C185.228 6.544 186.012 7.312 186.572 8.304C187.148 9.28 187.436 10.392 187.436 11.64C187.436 12.888 187.148 14.008 186.572 15C186.012 15.976 185.228 16.744 184.22 17.304C183.228 17.864 182.1 18.144 180.836 18.144ZM180.836 16.128C181.652 16.128 182.38 15.944 183.02 15.576C183.676 15.192 184.188 14.664 184.556 13.992C184.924 13.304 185.108 12.52 185.108 11.64C185.108 10.76 184.924 9.984 184.556 9.312C184.188 8.624 183.676 8.096 183.02 7.728C182.38 7.36 181.652 7.176 180.836 7.176C180.02 7.176 179.284 7.36 178.628 7.728C177.988 8.096 177.476 8.624 177.092 9.312C176.724 9.984 176.54 10.76 176.54 11.64C176.54 12.52 176.724 13.304 177.092 13.992C177.476 14.664 177.988 15.192 178.628 15.576C179.284 15.944 180.02 16.128 180.836 16.128ZM199.427 11.4C201.075 11.816 201.899 12.848 201.899 14.496C201.899 15.616 201.475 16.48 200.627 17.088C199.795 17.696 198.547 18 196.883 18H190.763V5.28H196.667C198.171 5.28 199.347 5.568 200.195 6.144C201.043 6.704 201.467 7.504 201.467 8.544C201.467 9.216 201.283 9.8 200.915 10.296C200.563 10.776 200.067 11.144 199.427 11.4ZM193.019 10.752H196.475C197.355 10.752 198.019 10.592 198.467 10.272C198.931 9.952 199.163 9.488 199.163 8.88C199.163 7.664 198.267 7.056 196.475 7.056H193.019V10.752ZM196.715 16.224C197.675 16.224 198.395 16.072 198.875 15.768C199.355 15.464 199.595 14.992 199.595 14.352C199.595 13.696 199.371 13.208 198.923 12.888C198.491 12.568 197.803 12.408 196.859 12.408H193.019V16.224H196.715ZM211.241 9.6C212.841 9.616 214.065 9.984 214.913 10.704C215.761 11.424 216.185 12.44 216.185 13.752C216.185 15.128 215.721 16.192 214.793 16.944C213.881 17.68 212.569 18.04 210.857 18.024L205.505 18V5.28H207.809V9.576L211.241 9.6ZM218.081 5.28H220.385V18H218.081V5.28ZM210.689 16.272C211.729 16.288 212.513 16.08 213.041 15.648C213.585 15.216 213.857 14.576 213.857 13.728C213.857 12.896 213.593 12.288 213.065 11.904C212.537 11.52 211.745 11.32 210.689 11.304L207.809 11.256V16.248L210.689 16.272ZM232.809 18L229.137 13.128L225.417 18H222.849L227.865 11.496L223.089 5.28H225.657L229.161 9.864L232.641 5.28H235.161L230.361 11.496L235.425 18H232.809ZM258.959 5.28V18H256.871V8.712L252.119 16.56H251.111L246.407 8.688V18H244.295V5.28H246.671L251.663 13.872L256.799 5.28H258.959ZM274.939 11.712C274.939 11.888 274.923 12.12 274.891 12.408H264.571C264.715 13.528 265.203 14.432 266.035 15.12C266.883 15.792 267.931 16.128 269.179 16.128C270.699 16.128 271.923 15.616 272.851 14.592L274.123 16.08C273.547 16.752 272.827 17.264 271.963 17.616C271.115 17.968 270.163 18.144 269.107 18.144C267.763 18.144 266.571 17.872 265.531 17.328C264.491 16.768 263.683 15.992 263.107 15C262.547 14.008 262.267 12.888 262.267 11.64C262.267 10.408 262.539 9.296 263.083 8.304C263.643 7.312 264.403 6.544 265.363 6C266.339 5.44 267.435 5.16 268.651 5.16C269.867 5.16 270.947 5.44 271.891 6C272.851 6.544 273.595 7.312 274.123 8.304C274.667 9.296 274.939 10.432 274.939 11.712ZM268.651 7.104C267.547 7.104 266.619 7.44 265.867 8.112C265.131 8.784 264.699 9.664 264.571 10.752H272.731C272.603 9.68 272.163 8.808 271.411 8.136C270.675 7.448 269.755 7.104 268.651 7.104ZM284.057 18.144C282.761 18.144 281.601 17.864 280.577 17.304C279.569 16.744 278.777 15.976 278.201 15C277.625 14.008 277.337 12.888 277.337 11.64C277.337 10.392 277.625 9.28 278.201 8.304C278.777 7.312 279.569 6.544 280.577 6C281.601 5.44 282.761 5.16 284.057 5.16C285.209 5.16 286.233 5.392 287.129 5.856C288.041 6.32 288.745 6.992 289.241 7.872L287.489 9C287.089 8.392 286.593 7.936 286.001 7.632C285.409 7.328 284.753 7.176 284.033 7.176C283.201 7.176 282.449 7.36 281.777 7.728C281.121 8.096 280.601 8.624 280.217 9.312C279.849 9.984 279.665 10.76 279.665 11.64C279.665 12.536 279.849 13.328 280.217 14.016C280.601 14.688 281.121 15.208 281.777 15.576C282.449 15.944 283.201 16.128 284.033 16.128C284.753 16.128 285.409 15.976 286.001 15.672C286.593 15.368 287.089 14.912 287.489 14.304L289.241 15.408C288.745 16.288 288.041 16.968 287.129 17.448C286.233 17.912 285.209 18.144 284.057 18.144ZM301.54 7.296H296.884V18H294.58V7.296H289.924V5.28H301.54V7.296Z" fill="white"/>
</svg>
