<svg width="229" height="22" viewBox="0 0 229 22" fill="none" xmlns="http://www.w3.org/2000/svg">
<path d="M11.1155 10.424L7.77953 15.392H5.69153L8.28353 11.312H0.627531V9.56H8.28353L5.69153 5.504H7.77953L11.1155 10.424ZM36.2235 0.199999L28.7595 14.048C28.1675 15.152 27.4715 15.976 26.6715 16.52C25.8715 17.064 24.9995 17.336 24.0555 17.336C23.3195 17.336 22.5675 17.168 21.7995 16.832L22.4235 14.912C23.0155 15.12 23.5435 15.224 24.0075 15.224C25.0635 15.224 25.9355 14.664 26.6235 13.544L27.0075 12.944L20.2395 0.199999H22.8075L28.2555 10.856L33.8475 0.199999H36.2235ZM42.9127 17.144C41.6167 17.144 40.4567 16.864 39.4327 16.304C38.4247 15.744 37.6327 14.976 37.0567 14C36.4807 13.008 36.1927 11.888 36.1927 10.64C36.1927 9.392 36.4807 8.28 37.0567 7.304C37.6327 6.312 38.4247 5.544 39.4327 5C40.4567 4.44 41.6167 4.16 42.9127 4.16C44.0647 4.16 45.0887 4.392 45.9847 4.856C46.8967 5.32 47.6007 5.992 48.0967 6.872L46.3447 8C45.9447 7.392 45.4487 6.936 44.8567 6.632C44.2647 6.328 43.6087 6.176 42.8887 6.176C42.0567 6.176 41.3047 6.36 40.6327 6.728C39.9767 7.096 39.4567 7.624 39.0727 8.312C38.7047 8.984 38.5207 9.76 38.5207 10.64C38.5207 11.536 38.7047 12.328 39.0727 13.016C39.4567 13.688 39.9767 14.208 40.6327 14.576C41.3047 14.944 42.0567 15.128 42.8887 15.128C43.6087 15.128 44.2647 14.976 44.8567 14.672C45.4487 14.368 45.9447 13.912 46.3447 13.304L48.0967 14.408C47.6007 15.288 46.8967 15.968 45.9847 16.448C45.0887 16.912 44.0647 17.144 42.9127 17.144ZM61.6247 4.28V17H59.3207V6.296H53.8487L53.7047 9.128C53.6247 10.84 53.4727 12.272 53.2487 13.424C53.0247 14.56 52.6567 15.472 52.1447 16.16C51.6327 16.848 50.9207 17.192 50.0087 17.192C49.5927 17.192 49.1207 17.12 48.5927 16.976L48.7367 15.032C48.9447 15.08 49.1367 15.104 49.3127 15.104C49.9527 15.104 50.4327 14.824 50.7527 14.264C51.0727 13.704 51.2807 13.04 51.3767 12.272C51.4727 11.504 51.5607 10.408 51.6407 8.984L51.8567 4.28H61.6247ZM71.5277 17.144C70.2637 17.144 69.1277 16.864 68.1197 16.304C67.1117 15.744 66.3197 14.976 65.7437 14C65.1837 13.008 64.9037 11.888 64.9037 10.64C64.9037 9.392 65.1837 8.28 65.7437 7.304C66.3197 6.312 67.1117 5.544 68.1197 5C69.1277 4.44 70.2637 4.16 71.5277 4.16C72.7917 4.16 73.9197 4.44 74.9117 5C75.9197 5.544 76.7037 6.312 77.2637 7.304C77.8397 8.28 78.1277 9.392 78.1277 10.64C78.1277 11.888 77.8397 13.008 77.2637 14C76.7037 14.976 75.9197 15.744 74.9117 16.304C73.9197 16.864 72.7917 17.144 71.5277 17.144ZM71.5277 15.128C72.3437 15.128 73.0717 14.944 73.7117 14.576C74.3677 14.192 74.8797 13.664 75.2477 12.992C75.6157 12.304 75.7997 11.52 75.7997 10.64C75.7997 9.76 75.6157 8.984 75.2477 8.312C74.8797 7.624 74.3677 7.096 73.7117 6.728C73.0717 6.36 72.3437 6.176 71.5277 6.176C70.7117 6.176 69.9757 6.36 69.3197 6.728C68.6797 7.096 68.1677 7.624 67.7837 8.312C67.4157 8.984 67.2317 9.76 67.2317 10.64C67.2317 11.52 67.4157 12.304 67.7837 12.992C68.1677 13.664 68.6797 14.192 69.3197 14.576C69.9757 14.944 70.7117 15.128 71.5277 15.128ZM90.1187 10.4C91.7667 10.816 92.5907 11.848 92.5907 13.496C92.5907 14.616 92.1667 15.48 91.3187 16.088C90.4867 16.696 89.2387 17 87.5747 17H81.4547V4.28H87.3587C88.8627 4.28 90.0387 4.568 90.8867 5.144C91.7347 5.704 92.1587 6.504 92.1587 7.544C92.1587 8.216 91.9747 8.8 91.6067 9.296C91.2547 9.776 90.7587 10.144 90.1187 10.4ZM83.7107 9.752H87.1667C88.0467 9.752 88.7107 9.592 89.1587 9.272C89.6227 8.952 89.8547 8.488 89.8547 7.88C89.8547 6.664 88.9587 6.056 87.1667 6.056H83.7107V9.752ZM87.4067 15.224C88.3667 15.224 89.0867 15.072 89.5667 14.768C90.0467 14.464 90.2867 13.992 90.2867 13.352C90.2867 12.696 90.0627 12.208 89.6147 11.888C89.1827 11.568 88.4947 11.408 87.5507 11.408H83.7107V15.224H87.4067ZM96.1968 4.28H98.5008V13.544L106.301 4.28H108.389V17H106.085V7.736L98.3088 17H96.1968V4.28ZM123.061 4.28V17H120.997V12.968H117.301H117.037L114.253 17H111.781L114.877 12.656C113.917 12.368 113.181 11.896 112.669 11.24C112.157 10.568 111.901 9.736 111.901 8.744C111.901 7.288 112.397 6.184 113.389 5.432C114.381 4.664 115.749 4.28 117.493 4.28H123.061ZM114.253 8.816C114.253 9.664 114.517 10.296 115.045 10.712C115.589 11.112 116.397 11.312 117.469 11.312H120.997V6.296H117.565C115.357 6.296 114.253 7.136 114.253 8.816ZM145.354 4.28L139.186 18.272C138.642 19.568 138.002 20.48 137.266 21.008C136.546 21.536 135.674 21.8 134.65 21.8C134.026 21.8 133.418 21.696 132.826 21.488C132.25 21.296 131.77 21.008 131.386 20.624L132.37 18.896C133.026 19.52 133.786 19.832 134.65 19.832C135.21 19.832 135.674 19.68 136.042 19.376C136.426 19.088 136.77 18.584 137.074 17.864L137.482 16.976L131.866 4.28H134.266L138.706 14.456L143.098 4.28H145.354ZM157.864 4.28V17H155.56V11.864C154.184 12.504 152.816 12.824 151.456 12.824C149.872 12.824 148.648 12.456 147.784 11.72C146.92 10.984 146.488 9.88 146.488 8.408V4.28H148.792V8.264C148.792 9.144 149.064 9.808 149.608 10.256C150.168 10.704 150.944 10.928 151.936 10.928C153.056 10.928 154.264 10.648 155.56 10.088V4.28H157.864ZM166.873 4.16C168.633 4.16 169.977 4.592 170.905 5.456C171.849 6.32 172.321 7.608 172.321 9.32V17H170.137V15.32C169.753 15.912 169.201 16.368 168.481 16.688C167.777 16.992 166.937 17.144 165.961 17.144C164.537 17.144 163.393 16.8 162.529 16.112C161.681 15.424 161.257 14.52 161.257 13.4C161.257 12.28 161.665 11.384 162.481 10.712C163.297 10.024 164.593 9.68 166.369 9.68H170.017V9.224C170.017 8.232 169.729 7.472 169.153 6.944C168.577 6.416 167.729 6.152 166.609 6.152C165.857 6.152 165.121 6.28 164.401 6.536C163.681 6.776 163.073 7.104 162.577 7.52L161.617 5.792C162.273 5.264 163.057 4.864 163.969 4.592C164.881 4.304 165.849 4.16 166.873 4.16ZM166.345 15.368C167.225 15.368 167.985 15.176 168.625 14.792C169.265 14.392 169.729 13.832 170.017 13.112V11.336H166.465C164.513 11.336 163.537 11.992 163.537 13.304C163.537 13.944 163.785 14.448 164.281 14.816C164.777 15.184 165.465 15.368 166.345 15.368ZM182.014 17.144C180.718 17.144 179.558 16.864 178.534 16.304C177.526 15.744 176.734 14.976 176.158 14C175.582 13.008 175.294 11.888 175.294 10.64C175.294 9.392 175.582 8.28 176.158 7.304C176.734 6.312 177.526 5.544 178.534 5C179.558 4.44 180.718 4.16 182.014 4.16C183.166 4.16 184.19 4.392 185.086 4.856C185.998 5.32 186.702 5.992 187.198 6.872L185.446 8C185.046 7.392 184.55 6.936 183.958 6.632C183.366 6.328 182.71 6.176 181.99 6.176C181.158 6.176 180.406 6.36 179.734 6.728C179.078 7.096 178.558 7.624 178.174 8.312C177.806 8.984 177.622 9.76 177.622 10.64C177.622 11.536 177.806 12.328 178.174 13.016C178.558 13.688 179.078 14.208 179.734 14.576C180.406 14.944 181.158 15.128 181.99 15.128C182.71 15.128 183.366 14.976 183.958 14.672C184.55 14.368 185.046 13.912 185.446 13.304L187.198 14.408C186.702 15.288 185.998 15.968 185.086 16.448C184.19 16.912 183.166 17.144 182.014 17.144ZM199.497 6.296H194.841V17H192.537V6.296H187.881V4.28H199.497V6.296ZM201.853 4.28H204.157V13.544L211.957 4.28H214.045V17H211.741V7.736L203.965 17H201.853V4.28ZM228.717 4.28V17H226.653V12.968H222.957H222.693L219.909 17H217.437L220.533 12.656C219.573 12.368 218.837 11.896 218.325 11.24C217.813 10.568 217.557 9.736 217.557 8.744C217.557 7.288 218.053 6.184 219.045 5.432C220.037 4.664 221.405 4.28 223.149 4.28H228.717ZM219.909 8.816C219.909 9.664 220.173 10.296 220.701 10.712C221.245 11.112 222.053 11.312 223.125 11.312H226.653V6.296H223.221C221.013 6.296 219.909 7.136 219.909 8.816Z" fill="white"/>
</svg>
